<?xml version="1.0" ?>
<!-- Uploaded to: SVG Repo, www.svgrepo.com, Generator: SVG Repo Mixer Tools -->
<svg width="800px" height="800px" viewBox="0 0 32 32" xmlns="http://www.w3.org/2000/svg">
<defs>
<style>.cls-1{fill:none;}.cls-2{fill:#17061c;}.cls-3{fill:#ff4a64;}</style>
</defs>
<title/>
<g id="handycam">
<rect class="cls-1" height="32" id="bg" width="32" x="-0.08" y="-0.18"/>
<path class="cls-2" d="M10.1,27.64H6a4.51,4.51,0,0,1-4.51-4.51V13.32h2v9.81A2.52,2.52,0,0,0,6,25.64H10.1a2.52,2.52,0,0,0,2.51-2.51v-10h2v10A4.51,4.51,0,0,1,10.1,27.64Z"/>
<path class="cls-2" d="M8.07,18a7,7,0,1,1,7-7A7,7,0,0,1,8.07,18Zm0-12a5,5,0,1,0,5,5A5,5,0,0,0,8.07,6Z"/>
<path class="cls-2" d="M8.06,14.15a3,3,0,1,1,3-3A3,3,0,0,1,8.06,14.15Zm0-4a1,1,0,1,0,1,1A1,1,0,0,0,8.06,10.15Z"/>
<path class="cls-2" d="M10.36,21.91H5.76a1,1,0,0,1,0-2h4.6a1,1,0,0,1,0,2Z"/>
<path class="cls-2" d="M16.42,19.82H14a1,1,0,1,1,0-2h2.41a1,1,0,0,1,0,2Z"/>
<path class="cls-2" d="M16.42,22.82H14a1,1,0,1,1,0-2h2.41a1,1,0,0,1,0,2Z"/>
<rect class="cls-3" height="9.72" rx="3" ry="3" width="12.5" x="17.28" y="15.24"/>
<path class="cls-2" d="M26.78,26h-6.5a4,4,0,0,1-4-4V18.24a4,4,0,0,1,4-4h6.5a4,4,0,0,1,4,4V22A4,4,0,0,1,26.78,26Zm-6.5-9.72a2,2,0,0,0-2,2V22a2,2,0,0,0,2,2h6.5a2,2,0,0,0,2-2V18.24a2,2,0,0,0-2-2Z"/>
</g>
</svg>